<svg width="13" height="8" viewBox="0 0 13 8" fill="none" xmlns="http://www.w3.org/2000/svg">
<path d="M12.072 1.67153C12.072 1.58224 12.0273 1.48179 11.9604 1.41483L11.4023 0.856793C11.3354 0.789829 11.2349 0.745187 11.1456 0.745187C11.0564 0.745187 10.9559 0.789829 10.889 0.856793L6.50279 5.24295L2.11663 0.856793C2.04967 0.789829 1.94922 0.745187 1.85993 0.745187C1.75949 0.745187 1.6702 0.789829 1.60324 0.856793L1.0452 1.41483C0.978237 1.48179 0.933594 1.58224 0.933594 1.67153C0.933594 1.76081 0.978237 1.86126 1.0452 1.92822L6.24609 7.12912C6.31306 7.19608 6.4135 7.24072 6.50279 7.24072C6.59208 7.24072 6.69252 7.19608 6.75949 7.12912L11.9604 1.92822C12.0273 1.86126 12.072 1.76081 12.072 1.67153Z" fill="white"/>
</svg>
